<svg width="156" height="18" viewBox="0 0 156 18" fill="none" xmlns="http://www.w3.org/2000/svg">
<path d="M11.7889 0.318999H16.4149V16.994H12.535L4.62603 7.801V16.994H0V0.318999H3.8799L11.7889 9.541V0.318999Z" fill="white"/>
<path d="M21.0142 16.994V0.318999H25.7297V16.994H21.0142Z" fill="white"/>
<path d="M42.0715 0.318999H46.6975V16.994H42.8176L34.9086 7.801V16.994H30.2825V0.318999H34.1624L42.0715 9.541V0.318999Z" fill="white"/>
<path d="M55.9526 13.485H65.1151V16.994H51.2967V0.318999H64.7868V3.828H55.9526V6.873H63.7721V10.208H55.9526V13.485Z" fill="white"/>
<path d="M74.2515 17.313C71.5057 17.313 68.6107 16.617 66.9991 15.515L68.6406 12.122C70.1627 13.108 72.3414 13.746 74.5201 13.746C76.6093 13.746 77.3554 13.108 77.3554 12.296C77.3554 9.483 67.4169 11.687 67.4169 5.365C67.4169 2.233 70.3119 0 75.117 0C77.2957 0 79.6535 0.434999 81.3249 1.45L79.8027 4.843C78.2508 3.915 76.5496 3.567 74.938 3.567C72.9085 3.567 72.0728 4.234 72.0728 5.104C72.0728 7.83 82.0113 5.771 82.0113 11.919C82.0113 15.08 79.2058 17.313 74.2515 17.313Z" fill="white"/>
<path d="M89.6452 13.485H98.8077V16.994H84.9893V0.318999H98.4794V3.828H89.6452V6.873H97.4647V10.208H89.6452V13.485Z" fill="white"/>
<path d="M114.632 0.318999H119.288L111.827 16.994H107.171L99.7096 0.318999H104.724L109.618 11.658L114.632 0.318999Z" fill="white"/>
<path d="M126.136 13.485H135.298V16.994H121.48V0.318999H134.97V3.828H126.136V6.873H133.955V10.208H126.136V13.485Z" fill="white"/>
<path d="M150.523 0.318999H155.149V16.994H151.269L143.36 7.801V16.994H138.734V0.318999H142.614L150.523 9.541V0.318999Z" fill="white"/>
</svg>
